# xmcd
#
# Track frame offsets:
# 150
# 15595
# 27893
# 41665
# 62670
# 79173
# 96135
# 109083
# 132653
# 150415
# 165373
# 184215
#
# Disc length: 2640 seconds
#
#
# Revision: 1
# Processed by: cddbd v1.5.1PL2 Copyright (c) Steve Scherf et al.
# Submitted via: FreeRIP 2.944 
#
DISCID=900a4e0c
DTITLE=Gin House Blues Band - Gin House Blues Band
DYEAR=1986
DGENRE=Bluesrock
TTITLE0=Power Of The Blues
TTITLE1=Down To Big Mary`s
TTITLE2=You Don`t Love Me
TTITLE3=Unknown Boy
TTITLE4=Change It
TTITLE5=Too Busy To Be Blue
TTITLE6=Confidence Man
TTITLE7=Slow Blues In C
TTITLE8=The Old Oak Tree
TTITLE9=Sinners Prayer
TTITLE10=The Thrill Is Gone
TTITLE11=Messing With The Kid
EXTD=
EXTT0=
EXTT1=
EXTT2=
EXTT3=
EXTT4=
EXTT5=
EXTT6=
EXTT7=
EXTT8=
EXTT9=
EXTT10=
EXTT11=
PLAYORDER=
